<svg width="1000" height="600" viewBox="0 0 1000 600" fill="none" xmlns="http://www.w3.org/2000/svg">
<g clip-path="url(#clip0_133_6229)">
<rect width="1000" height="600" fill="#1E1E1E"/>
<g clip-path="url(#clip1_133_6229)">
<path d="M775.172 186.333C798.805 403.143 805.348 463.168 805.665 466.08" stroke="white" stroke-width="2" stroke-linecap="round"/>
<path d="M861.788 174.144C885.421 390.954 891.964 450.979 892.281 453.89" stroke="white" stroke-width="2" stroke-linecap="round"/>
<path d="M767.912 195.369C984.722 171.736 1044.75 165.193 1047.66 164.876" stroke="white" stroke-width="2" stroke-linecap="round"/>
<path d="M774.67 282.577C991.48 258.944 1051.51 252.401 1054.42 252.083" stroke="white" stroke-width="2" stroke-linecap="round"/>
<path d="M786.859 369.192C1003.67 345.559 1063.69 339.016 1066.61 338.699" stroke="white" stroke-width="2" stroke-linecap="round"/>
<path d="M793.617 456.4C1010.43 432.767 1070.45 426.224 1073.36 425.907" stroke="white" stroke-width="2" stroke-linecap="round"/>
<path d="M948.699 164.67C972.332 381.48 978.875 441.505 979.193 444.417" stroke="white" stroke-width="2" stroke-linecap="round"/>
<path d="M824.491 255.556C821.319 255.902 818.378 255.343 815.668 253.879C812.997 252.368 810.798 250.145 809.071 247.211C807.339 244.234 806.262 240.811 805.841 236.944C805.367 232.598 805.798 228.484 807.134 224.601C808.469 220.717 810.499 217.55 813.221 215.099C815.94 212.604 819.015 211.169 822.448 210.795C825.664 210.445 828.607 211.025 831.279 212.537C833.945 214.005 836.144 216.228 837.876 219.205C839.607 222.182 840.684 225.605 841.106 229.472C841.579 233.818 841.148 237.932 839.813 241.815C838.472 245.655 836.443 248.823 833.725 251.317C831.002 253.769 827.924 255.182 824.491 255.556ZM824.311 251.486C826.919 251.202 829.233 250.048 831.255 248.025C833.321 245.997 834.861 243.388 835.877 240.2C836.892 237.011 837.208 233.657 836.825 230.137C836.469 226.878 835.611 224.047 834.25 221.645C832.889 219.243 831.177 217.451 829.113 216.269C827.093 215.082 824.909 214.616 822.563 214.872C819.999 215.151 817.684 216.305 815.619 218.333C813.548 220.318 812.006 222.904 810.99 226.093C810.018 229.277 809.731 232.694 810.129 236.345C810.489 239.647 811.349 242.5 812.71 244.902C814.11 247.255 815.818 249.004 817.833 250.147C819.849 251.291 822.008 251.737 824.311 251.486Z" fill="#FFA100" fill-opacity="0.89"/>
<path d="M930.35 419.905C927.178 420.251 924.237 419.692 921.527 418.229C918.855 416.717 916.656 414.494 914.93 411.561C913.198 408.583 912.121 405.161 911.7 401.294C911.226 396.948 911.657 392.834 912.993 388.95C914.328 385.067 916.357 381.9 919.08 379.448C921.798 376.953 924.874 375.519 928.307 375.145C931.523 374.794 934.466 375.375 937.137 376.886C939.804 378.355 942.003 380.577 943.735 383.555C945.466 386.532 946.543 389.954 946.964 393.822C947.438 398.167 947.007 402.282 945.672 406.165C944.331 410.005 942.302 413.172 939.584 415.667C936.861 418.118 933.783 419.531 930.35 419.905ZM930.17 415.836C932.778 415.551 935.092 414.398 937.114 412.374C939.18 410.346 940.72 407.738 941.736 404.549C942.751 401.361 943.067 398.006 942.684 394.486C942.328 391.227 941.47 388.397 940.109 385.995C938.748 383.593 937.035 381.8 934.972 380.618C932.952 379.431 930.768 378.966 928.422 379.222C925.858 379.501 923.543 380.655 921.478 382.683C919.407 384.667 917.864 387.254 916.849 390.443C915.877 393.627 915.59 397.044 915.988 400.694C916.348 403.997 917.208 406.849 918.569 409.251C919.969 411.605 921.677 413.354 923.692 414.497C925.708 415.641 927.867 416.087 930.17 415.836Z" fill="#FFA100" fill-opacity="0.89"/>
<path d="M906.666 334.543C906.058 334.609 905.537 334.468 905.103 334.119C904.665 333.727 904.415 333.249 904.353 332.684C904.301 332.206 904.406 331.755 904.667 331.331L918.744 310.405L901.929 293.505C901.525 293.022 901.304 292.606 901.266 292.258C901.204 291.694 901.369 291.192 901.761 290.753C902.153 290.315 902.632 290.065 903.196 290.003C903.848 289.932 904.418 290.112 904.904 290.543L920.996 306.861L934.106 287.36C934.402 286.844 934.897 286.548 935.593 286.472C936.158 286.41 936.659 286.576 937.098 286.968C937.575 287.311 937.842 287.744 937.899 288.265C937.951 288.743 937.827 289.219 937.527 289.691L924.031 309.894L941.373 327.396C941.667 327.671 941.842 328.07 941.899 328.591C941.96 329.156 941.819 329.677 941.476 330.155C941.127 330.588 940.67 330.836 940.105 330.898C939.41 330.973 938.863 330.791 938.463 330.351L921.648 313.452L908.152 333.655C907.814 334.176 907.318 334.472 906.666 334.543Z" fill="#FFA100" fill-opacity="0.89"/>
<path d="M996.294 324.773C995.685 324.839 995.164 324.698 994.731 324.35C994.292 323.958 994.042 323.48 993.98 322.915C993.928 322.437 994.033 321.985 994.295 321.561L1008.37 300.635L991.557 283.736C991.152 283.252 990.931 282.837 990.893 282.489C990.832 281.924 990.997 281.422 991.389 280.984C991.781 280.545 992.259 280.295 992.824 280.234C993.476 280.163 994.045 280.343 994.532 280.773L1010.62 297.092L1023.73 277.59C1024.03 277.074 1024.52 276.778 1025.22 276.702C1025.79 276.641 1026.29 276.806 1026.73 277.198C1027.2 277.542 1027.47 277.974 1027.53 278.496C1027.58 278.974 1027.45 279.449 1027.15 279.921L1013.66 300.125L1031 317.626C1031.29 317.902 1031.47 318.3 1031.53 318.822C1031.59 319.387 1031.45 319.908 1031.1 320.385C1030.75 320.819 1030.3 321.067 1029.73 321.128C1029.04 321.204 1028.49 321.022 1028.09 320.582L1011.28 303.682L997.78 323.886C997.441 324.406 996.946 324.702 996.294 324.773Z" fill="#FFA100" fill-opacity="0.89"/>
<path d="M829.228 430.928C828.62 430.994 828.099 430.853 827.665 430.505C827.227 430.113 826.977 429.634 826.915 429.069C826.863 428.591 826.968 428.14 827.229 427.716L841.306 406.79L824.491 389.891C824.087 389.407 823.866 388.991 823.828 388.644C823.766 388.079 823.931 387.577 824.323 387.139C824.715 386.7 825.194 386.45 825.758 386.389C826.41 386.318 826.98 386.497 827.466 386.928L843.558 403.246L856.668 383.745C856.964 383.229 857.459 382.933 858.155 382.857C858.72 382.796 859.221 382.961 859.66 383.353C860.137 383.697 860.404 384.129 860.461 384.651C860.513 385.129 860.389 385.604 860.089 386.076L846.593 406.279L863.935 423.781C864.229 424.057 864.404 424.455 864.461 424.977C864.522 425.542 864.381 426.063 864.038 426.54C863.689 426.974 863.232 427.221 862.668 427.283C861.972 427.359 861.425 427.176 861.025 426.736L844.21 409.837L830.715 430.04C830.376 430.561 829.88 430.857 829.228 430.928Z" fill="#FFA100" fill-opacity="0.89"/>
</g>
</g>
<defs>
<clipPath id="clip0_133_6229">
<rect width="1000" height="600" fill="white"/>
</clipPath>
<clipPath id="clip1_133_6229">
<rect width="289.6" height="289.6" fill="white" transform="translate(761 182.381) rotate(-6.22088)"/>
</clipPath>
</defs>
</svg>
