<svg width="240" height="240" viewBox="0 0 240 240" fill="none" xmlns="http://www.w3.org/2000/svg">
<g clip-path="url(#clip0_204_6160)">
<path d="M76.6274 53.0107C69.67 132.534 67.7438 154.551 67.6504 155.619" stroke="white" stroke-width="2" stroke-linecap="round"/>
<path d="M108.593 54.8037C101.635 134.327 99.7092 156.344 99.6157 157.412" stroke="white" stroke-width="2" stroke-linecap="round"/>
<path d="M73.3774 55.7378C152.901 62.6952 174.918 64.6214 175.985 64.7148" stroke="white" stroke-width="2" stroke-linecap="round"/>
<path d="M69.5923 87.5288C149.116 94.4862 171.132 96.4124 172.2 96.5059" stroke="white" stroke-width="2" stroke-linecap="round"/>
<path d="M67.7993 119.494C147.323 126.452 169.339 128.378 170.407 128.471" stroke="white" stroke-width="2" stroke-linecap="round"/>
<path d="M64.0142 151.285C143.538 158.243 165.554 160.169 166.622 160.262" stroke="white" stroke-width="2" stroke-linecap="round"/>
<path d="M140.471 57.5923C133.514 137.116 131.588 159.132 131.494 160.2" stroke="white" stroke-width="2" stroke-linecap="round"/>
<path d="M172.349 60.3813C165.392 139.905 163.466 161.922 163.372 162.989" stroke="white" stroke-width="2" stroke-linecap="round"/>
<path d="M89.4037 81.3761C88.2402 81.2743 87.2241 80.8642 86.3554 80.1457C85.504 79.4127 84.8728 78.4581 84.4618 77.2818C84.0521 76.0896 83.9094 74.7842 84.0335 73.3656C84.1729 71.7717 84.6207 70.3252 85.3768 69.0261C86.1329 67.7271 87.087 66.7345 88.2392 66.0483C89.3928 65.3462 90.5992 65.0502 91.8584 65.1603C93.0379 65.2635 94.0533 65.6816 94.9047 66.4146C95.7574 67.1317 96.3886 68.0863 96.7983 69.2785C97.2079 70.4708 97.3507 71.7762 97.2266 73.1948C97.0871 74.7887 96.6393 76.2352 95.8832 77.5342C95.1285 78.8173 94.1744 79.8099 93.0208 80.5121C91.8686 81.1983 90.6629 81.4863 89.4037 81.3761ZM89.6291 79.9021C90.5854 79.9858 91.4986 79.7364 92.3687 79.1541C93.2547 78.5731 93.9936 77.7463 94.5853 76.6738C95.177 75.6013 95.5294 74.4195 95.6423 73.1284C95.7469 71.933 95.6404 70.8556 95.3228 69.8963C95.0052 68.937 94.5181 68.1716 93.8614 67.6002C93.2206 67.0302 92.4699 66.7075 91.6092 66.6322C90.6687 66.5499 89.7555 66.7993 88.8695 67.3803C87.9849 67.9453 87.2467 68.7641 86.655 69.8366C86.0792 70.9105 85.7328 72.1169 85.6156 73.4558C85.5096 74.6672 85.6155 75.7525 85.9331 76.7119C86.268 77.6567 86.7565 78.4061 87.3987 78.9602C88.0408 79.5142 88.7843 79.8282 89.6291 79.9021Z" fill="#FFA100" fill-opacity="0.89"/>
<path d="M154.157 87.0411C152.993 86.9393 151.977 86.5292 151.108 85.8108C150.257 85.0778 149.626 84.1231 149.215 82.9468C148.805 81.7546 148.662 80.4492 148.786 79.0306C148.926 77.4367 149.374 75.9902 150.13 74.6912C150.886 73.3921 151.84 72.3995 152.992 71.7133C154.146 71.0112 155.352 70.7152 156.611 70.8254C157.791 70.9286 158.806 71.3467 159.658 72.0796C160.51 72.7967 161.142 73.7513 161.551 74.9436C161.961 76.1358 162.104 77.4412 161.979 78.8598C161.84 80.4537 161.392 81.9002 160.636 83.1992C159.881 84.4824 158.927 85.475 157.774 86.1771C156.622 86.8633 155.416 87.1513 154.157 87.0411ZM154.382 85.5672C155.338 85.6508 156.252 85.4015 157.122 84.8191C158.008 84.2381 158.746 83.4114 159.338 82.3389C159.93 81.2663 160.282 80.0846 160.395 78.7935C160.5 77.5981 160.393 76.5207 160.076 75.5613C159.758 74.602 159.271 73.8366 158.614 73.2652C157.974 72.6952 157.223 72.3726 156.362 72.2973C155.422 72.215 154.508 72.4643 153.622 73.0453C152.738 73.6104 152 74.4292 151.408 75.5017C150.832 76.5756 150.486 77.782 150.369 79.1208C150.263 80.3322 150.368 81.4176 150.686 82.3769C151.021 83.3217 151.509 84.0711 152.152 84.6252C152.794 85.1793 153.537 85.4933 154.382 85.5672Z" fill="#FFA100" fill-opacity="0.89"/>
<path d="M115.704 147.922C114.54 147.82 113.524 147.41 112.656 146.691C111.804 145.958 111.173 145.004 110.762 143.827C110.352 142.635 110.21 141.33 110.334 139.911C110.473 138.317 110.921 136.871 111.677 135.572C112.433 134.273 113.387 133.28 114.54 132.594C115.693 131.892 116.899 131.596 118.159 131.706C119.338 131.809 120.354 132.227 121.205 132.96C122.058 133.677 122.689 134.632 123.099 135.824C123.508 137.016 123.651 138.322 123.527 139.74C123.387 141.334 122.94 142.781 122.184 144.08C121.429 145.363 120.475 146.355 119.321 147.057C118.169 147.744 116.963 148.032 115.704 147.922ZM115.929 146.448C116.886 146.531 117.799 146.282 118.669 145.699C119.555 145.118 120.294 144.292 120.886 143.219C121.477 142.147 121.83 140.965 121.943 139.674C122.047 138.478 121.941 137.401 121.623 136.442C121.305 135.482 120.818 134.717 120.162 134.146C119.521 133.576 118.77 133.253 117.909 133.178C116.969 133.095 116.056 133.345 115.17 133.926C114.285 134.491 113.547 135.31 112.955 136.382C112.38 137.456 112.033 138.662 111.916 140.001C111.81 141.213 111.916 142.298 112.233 143.257C112.568 144.202 113.057 144.951 113.699 145.506C114.341 146.06 115.085 146.374 115.929 146.448Z" fill="#FFA100" fill-opacity="0.89"/>
<path d="M151.368 118.92C150.204 118.818 149.188 118.408 148.319 117.689C147.468 116.956 146.837 116.002 146.426 114.825C146.016 113.633 145.873 112.328 145.997 110.909C146.137 109.315 146.585 107.869 147.341 106.57C148.097 105.271 149.051 104.278 150.203 103.592C151.357 102.89 152.563 102.594 153.822 102.704C155.002 102.807 156.017 103.225 156.869 103.958C157.721 104.675 158.352 105.63 158.762 106.822C159.172 108.014 159.315 109.32 159.19 110.738C159.051 112.332 158.603 113.779 157.847 115.078C157.092 116.361 156.138 117.353 154.985 118.056C153.832 118.742 152.627 119.03 151.368 118.92ZM151.593 117.446C152.549 117.529 153.462 117.28 154.333 116.698C155.219 116.117 155.957 115.29 156.549 114.217C157.141 113.145 157.493 111.963 157.606 110.672C157.711 109.476 157.604 108.399 157.287 107.44C156.969 106.48 156.482 105.715 155.825 105.144C155.184 104.574 154.434 104.251 153.573 104.176C152.633 104.093 151.719 104.343 150.833 104.924C149.949 105.489 149.211 106.308 148.619 107.38C148.043 108.454 147.697 109.66 147.579 110.999C147.474 112.211 147.579 113.296 147.897 114.255C148.232 115.2 148.72 115.95 149.363 116.504C150.005 117.058 150.748 117.372 151.593 117.446Z" fill="#FFA100" fill-opacity="0.89"/>
<path d="M113.281 115.588C113.058 115.568 112.881 115.48 112.75 115.324C112.62 115.152 112.565 114.963 112.583 114.756C112.598 114.58 112.668 114.426 112.792 114.292L119.336 107.782L114.503 100.517C114.392 100.314 114.343 100.149 114.354 100.022C114.372 99.8146 114.467 99.6463 114.639 99.5168C114.811 99.3873 115 99.3316 115.208 99.3497C115.447 99.3706 115.638 99.4757 115.782 99.665L120.397 106.67L126.493 100.602C126.636 100.438 126.835 100.367 127.09 100.389C127.297 100.407 127.466 100.502 127.595 100.674C127.742 100.832 127.807 101.006 127.79 101.197C127.775 101.373 127.697 101.535 127.555 101.683L121.271 107.975L126.251 115.494C126.336 115.614 126.371 115.769 126.354 115.96C126.336 116.168 126.248 116.345 126.091 116.491C125.935 116.622 125.753 116.679 125.546 116.661C125.291 116.638 125.108 116.534 124.995 116.347L120.162 109.083L113.878 115.375C113.719 115.538 113.52 115.609 113.281 115.588Z" fill="#FFA100" fill-opacity="0.89"/>
<path d="M143.366 150.342C143.143 150.322 142.966 150.235 142.835 150.079C142.706 149.907 142.65 149.717 142.668 149.51C142.684 149.335 142.753 149.18 142.878 149.046L149.422 142.536L144.589 135.271C144.478 135.069 144.428 134.904 144.439 134.776C144.457 134.569 144.552 134.401 144.724 134.271C144.896 134.142 145.086 134.086 145.293 134.104C145.532 134.125 145.724 134.23 145.868 134.419L150.483 141.424L156.579 135.356C156.722 135.192 156.921 135.121 157.176 135.144C157.383 135.162 157.551 135.257 157.681 135.429C157.828 135.586 157.893 135.761 157.876 135.952C157.861 136.127 157.782 136.289 157.641 136.437L151.356 142.729L156.336 150.248C156.422 150.368 156.456 150.524 156.44 150.715C156.422 150.922 156.334 151.099 156.176 151.246C156.02 151.377 155.839 151.433 155.632 151.415C155.377 151.393 155.193 151.288 155.081 151.102L150.248 143.837L143.963 150.129C143.804 150.292 143.606 150.363 143.366 150.342Z" fill="#FFA100" fill-opacity="0.89"/>
<path d="M78.7009 143.68C78.4778 143.661 78.3008 143.573 78.1699 143.417C78.0403 143.245 77.9847 143.056 78.0028 142.848C78.0181 142.673 78.0879 142.519 78.212 142.385L84.7563 135.874L79.9231 128.61C79.8123 128.407 79.7625 128.242 79.7737 128.115C79.7918 127.907 79.8868 127.739 80.0588 127.61C80.2307 127.48 80.4203 127.424 80.6275 127.442C80.8666 127.463 81.0581 127.568 81.2022 127.758L85.8172 134.763L91.9133 128.695C92.0561 128.531 92.2551 128.46 92.5101 128.482C92.7173 128.5 92.8857 128.595 93.0152 128.767C93.162 128.925 93.2271 129.099 93.2103 129.29C93.195 129.466 93.1166 129.627 92.9751 129.776L86.6908 136.068L91.6705 143.586C91.7563 143.706 91.7909 143.862 91.7742 144.053C91.7561 144.26 91.6683 144.437 91.5109 144.584C91.3549 144.715 91.1733 144.772 90.9661 144.753C90.7111 144.731 90.5275 144.627 90.4153 144.44L85.5821 137.175L79.2977 143.468C79.139 143.63 78.94 143.701 78.7009 143.68Z" fill="#FFA100" fill-opacity="0.89"/>
<path d="M116.07 83.7092C115.847 83.6896 115.67 83.6019 115.539 83.4459C115.409 83.2739 115.354 83.0844 115.372 82.8772C115.387 82.7018 115.457 82.5473 115.581 82.4136L122.125 75.9032L117.292 68.6383C117.181 68.4359 117.132 68.2709 117.143 68.1434C117.161 67.9362 117.256 67.7679 117.428 67.6384C117.6 67.5088 117.789 67.4532 117.997 67.4713C118.236 67.4922 118.427 67.5973 118.571 67.7866L123.186 74.7915L129.282 68.7237C129.425 68.5595 129.624 68.4886 129.879 68.5109C130.086 68.529 130.255 68.624 130.384 68.796C130.531 68.9534 130.596 69.1277 130.579 69.319C130.564 69.4943 130.486 69.6561 130.344 69.8043L124.06 76.0966L129.04 83.6152C129.125 83.7351 129.16 83.8907 129.143 84.082C129.125 84.2892 129.037 84.4662 128.88 84.6131C128.724 84.744 128.542 84.8004 128.335 84.7822C128.08 84.7599 127.897 84.6555 127.784 84.469L122.951 77.2041L116.667 83.4964C116.508 83.6592 116.309 83.7301 116.07 83.7092Z" fill="#FFA100" fill-opacity="0.89"/>
<path d="M81.3157 113.795C81.0925 113.775 80.9155 113.687 80.7846 113.531C80.6551 113.359 80.5994 113.17 80.6175 112.963C80.6329 112.787 80.7026 112.633 80.8267 112.499L87.3711 105.989L82.5378 98.7238C82.4271 98.5214 82.3772 98.3564 82.3884 98.2289C82.4065 98.0217 82.5016 97.8533 82.6735 97.7238C82.8454 97.5943 83.035 97.5386 83.2422 97.5567C83.4813 97.5777 83.6729 97.6828 83.8169 97.872L88.432 104.877L94.528 98.8091C94.6709 98.645 94.8698 98.574 95.1248 98.5963C95.3321 98.6145 95.5004 98.7095 95.6299 98.8814C95.7768 99.0388 95.8418 99.2132 95.8251 99.4044C95.8097 99.5798 95.7313 99.7415 95.5899 99.8898L89.3056 106.182L94.2852 113.701C94.3711 113.821 94.4057 113.976 94.3889 114.167C94.3708 114.375 94.283 114.552 94.1256 114.699C93.9696 114.829 93.788 114.886 93.5808 114.868C93.3258 114.845 93.1422 114.741 93.03 114.554L88.1968 107.29L81.9125 113.582C81.7537 113.745 81.5548 113.816 81.3157 113.795Z" fill="#FFA100" fill-opacity="0.89"/>
<line x1="72.6557" y1="92.2454" x2="95.6557" y2="112.245" stroke="white" stroke-width="2"/>
<line x1="97.0508" y1="113.316" x2="78.0508" y2="56.3162" stroke="white" stroke-width="2"/>
</g>
<path d="M182.371 40.0472C182.371 43.1036 181.557 46.1216 181.813 49.1981C182.377 55.9907 187.71 62.9065 193.756 65.9102C198.633 68.333 197.67 61.3628 197.064 58.3919C195.792 52.1556 191.308 46.5647 186.109 43.0116C185.74 42.7597 184.709 42.5131 184.39 43.0116C181.871 46.9546 190.185 51.8216 192.596 52.7639C197.945 54.8547 204.543 53.0234 201.446 46.1049C199.305 41.3232 195.314 37.5457 190.92 34.8489C189.131 33.7503 184.917 31.2787 182.543 32.8726C177.889 35.9979 181.999 43.9554 185.121 46.3626C190.64 50.6183 190.212 43.1592 188.343 39.7895C186.306 36.1178 182.972 32.8017 179.17 30.9823C176.537 29.7218 175.692 31.1522 176.271 33.8607C178.661 45.0489 189.271 55.3969 199.985 58.9075C202.664 59.7852 204.479 59.0424 203.809 55.9216C202.39 49.3127 197.257 43.4006 192.682 38.7584C191.869 37.933 175.245 22.0901 177.516 32.5719C180.035 44.1916 196.401 49.5176 206.516 50.9595C208.425 51.2317 214.799 51.9626 212.401 47.7589C209.108 41.9833 200.809 38.4576 194.766 36.6962C192.58 36.0592 188.631 35.0403 187.441 38.071C186.234 41.1412 188.114 44.7331 189.932 47.05C191.227 48.6997 193.557 50.9899 195.775 51.4751C197.637 51.8823 196.06 48.7966 195.99 48.6826C193.846 45.2064 182.411 33.8394 179.793 41.8946C179.098 44.0329 178.808 51.1314 182.715 51.1314C183.83 51.1314 180.811 49.9552 179.793 49.4988C177.424 48.4365 174.849 47.1125 172.297 46.5345C171.399 46.3312 172.767 48.3935 173.392 49.0692C176.78 52.7323 180.934 55.5954 185.4 57.7905C188.08 59.1078 193.435 61.7624 196.72 60.3252C198.991 59.3317 197.094 56.1711 196.355 55.0839C195.59 53.9577 191.995 51.1532 191.952 49.6707C191.928 48.8588 195.854 49.9938 196.033 50.0359C199.269 50.7973 200.363 48.5797 198.589 45.4819C196.793 42.3456 193.693 40.1837 190.448 38.7584C189.92 38.5266 186.963 37.2973 186.087 37.9851C185.566 38.395 187.259 39.7352 187.505 39.145C188.343 37.1327 181.761 32.9543 180.395 32.2712C178.767 31.4574 179.929 33.427 180.223 33.8607C181.483 35.7171 183.189 37.4312 185.228 38.4147C189.495 40.4728 192.48 37.5604 192.016 33.1734C191.88 31.8833 191.257 28.7111 190.362 29.6505C189.498 30.5577 190.15 33.1596 190.383 34.1185C191.688 39.474 196.377 38.2838 200.931 38.5006" stroke="#FFA100" stroke-opacity="0.89" stroke-linecap="round"/>
<line x1="95" y1="207" x2="95" y2="161" stroke="white" stroke-width="2"/>
<line x1="144" y1="207" x2="144" y2="161" stroke="white" stroke-width="2"/>
<path d="M94.0898 207.506C94.2925 208.237 94.0671 209.066 93.436 209.831C92.8062 210.595 91.799 211.255 90.5552 211.6C89.3114 211.945 88.108 211.898 87.1748 211.567C86.2397 211.236 85.6199 210.642 85.4171 209.911C85.2144 209.18 85.4399 208.352 86.0709 207.587C86.7007 206.823 87.708 206.163 88.9518 205.818C90.1955 205.473 91.399 205.52 92.3322 205.851C93.2673 206.182 93.8871 206.775 94.0898 207.506Z" stroke="white"/>
<path d="M153.09 209.911C152.887 210.642 152.267 211.236 151.332 211.567C150.399 211.898 149.195 211.945 147.952 211.6C146.708 211.255 145.701 210.595 145.071 209.831C144.44 209.066 144.214 208.237 144.417 207.506C144.62 206.775 145.24 206.182 146.175 205.851C147.108 205.52 148.311 205.473 149.555 205.818C150.799 206.163 151.806 206.823 152.436 207.587C153.067 208.352 153.292 209.18 153.09 209.911Z" stroke="white"/>
<line x1="168.656" y1="101.245" x2="191.656" y2="121.245" stroke="white" stroke-width="2"/>
<line x1="193.078" y1="122.387" x2="167.078" y2="60.3867" stroke="white" stroke-width="2"/>
<defs>
<clipPath id="clip0_204_6160">
<rect width="106" height="106" fill="white" transform="translate(71.8208 50.5825) rotate(5)"/>
</clipPath>
</defs>
</svg>
