<svg width="240" height="240" viewBox="0 0 240 240" fill="none" xmlns="http://www.w3.org/2000/svg">
<g clip-path="url(#clip0_204_6081)">
<path d="M66.0452 93.2017C59.0878 172.725 57.1616 194.742 57.0681 195.81" stroke="white" stroke-width="2" stroke-linecap="round"/>
<path d="M98.0105 94.9946C91.0531 174.518 89.1269 196.535 89.0335 197.603" stroke="white" stroke-width="2" stroke-linecap="round"/>
<path d="M62.7952 95.9287C142.319 102.886 164.335 104.812 165.403 104.906" stroke="white" stroke-width="2" stroke-linecap="round"/>
<path d="M59.01 127.72C138.534 134.677 160.55 136.603 161.618 136.697" stroke="white" stroke-width="2" stroke-linecap="round"/>
<path d="M57.2173 159.685C136.741 166.642 158.757 168.569 159.825 168.662" stroke="white" stroke-width="2" stroke-linecap="round"/>
<path d="M53.4319 191.476C132.955 198.433 154.972 200.36 156.04 200.453" stroke="white" stroke-width="2" stroke-linecap="round"/>
<path d="M129.889 97.7832C122.932 177.307 121.005 199.323 120.912 200.391" stroke="white" stroke-width="2" stroke-linecap="round"/>
<path d="M161.767 100.572C154.81 180.096 152.883 202.112 152.79 203.18" stroke="white" stroke-width="2" stroke-linecap="round"/>
<path d="M78.8217 121.567C77.6582 121.465 76.642 121.055 75.7733 120.337C74.922 119.604 74.2908 118.649 73.8797 117.473C73.4701 116.28 73.3273 114.975 73.4514 113.556C73.5909 111.963 74.0387 110.516 74.7948 109.217C75.5509 107.918 76.505 106.925 77.6572 106.239C78.8108 105.537 80.0172 105.241 81.2764 105.351C82.4558 105.454 83.4713 105.873 84.3226 106.606C85.1754 107.323 85.8066 108.277 86.2162 109.469C86.6259 110.662 86.7686 111.967 86.6445 113.386C86.5051 114.98 86.0573 116.426 85.3012 117.725C84.5465 119.008 83.5924 120.001 82.4388 120.703C81.2866 121.389 80.0809 121.677 78.8217 121.567ZM79.047 120.093C80.0034 120.177 80.9166 119.927 81.7867 119.345C82.6727 118.764 83.4115 117.937 84.0033 116.865C84.595 115.792 84.9473 114.61 85.0603 113.319C85.1649 112.124 85.0584 111.047 84.7408 110.087C84.4232 109.128 83.936 108.363 83.2793 107.791C82.6386 107.221 81.8878 106.898 81.0271 106.823C80.0867 106.741 79.1735 106.99 78.2875 107.571C77.4029 108.136 76.6647 108.955 76.073 110.028C75.4972 111.101 75.1507 112.308 75.0336 113.647C74.9276 114.858 75.0334 115.943 75.351 116.903C75.686 117.848 76.1745 118.597 76.8166 119.151C77.4588 119.705 78.2023 120.019 79.047 120.093Z" fill="#FFA100" fill-opacity="0.89"/>
<path d="M143.574 127.232C142.411 127.13 141.394 126.72 140.526 126.002C139.674 125.269 139.043 124.314 138.632 123.138C138.223 121.946 138.08 120.64 138.204 119.222C138.343 117.628 138.791 116.181 139.547 114.882C140.303 113.583 141.257 112.59 142.41 111.904C143.563 111.202 144.77 110.906 146.029 111.016C147.208 111.119 148.224 111.538 149.075 112.271C149.928 112.988 150.559 113.942 150.969 115.135C151.378 116.327 151.521 117.632 151.397 119.051C151.258 120.645 150.81 122.091 150.054 123.39C149.299 124.673 148.345 125.666 147.191 126.368C146.039 127.054 144.833 127.342 143.574 127.232ZM143.799 125.758C144.756 125.842 145.669 125.592 146.539 125.01C147.425 124.429 148.164 123.602 148.756 122.53C149.347 121.457 149.7 120.275 149.813 118.984C149.917 117.789 149.811 116.712 149.493 115.752C149.176 114.793 148.688 114.028 148.032 113.456C147.391 112.886 146.64 112.563 145.78 112.488C144.839 112.406 143.926 112.655 143.04 113.236C142.155 113.801 141.417 114.62 140.825 115.693C140.25 116.766 139.903 117.973 139.786 119.312C139.68 120.523 139.786 121.608 140.103 122.568C140.438 123.513 140.927 124.262 141.569 124.816C142.211 125.37 142.955 125.684 143.799 125.758Z" fill="#FFA100" fill-opacity="0.89"/>
<path d="M105.122 188.112C103.958 188.011 102.942 187.601 102.073 186.882C101.222 186.149 100.591 185.194 100.18 184.018C99.7701 182.826 99.6274 181.52 99.7515 180.102C99.8909 178.508 100.339 177.062 101.095 175.762C101.851 174.463 102.805 173.471 103.957 172.785C105.111 172.082 106.317 171.786 107.576 171.897C108.756 172 109.771 172.418 110.623 173.151C111.475 173.868 112.107 174.823 112.516 176.015C112.926 177.207 113.069 178.513 112.945 179.931C112.805 181.525 112.357 182.971 111.601 184.271C110.847 185.554 109.892 186.546 108.739 187.248C107.587 187.935 106.381 188.223 105.122 188.112ZM105.347 186.638C106.303 186.722 107.217 186.473 108.087 185.89C108.973 185.309 109.712 184.483 110.303 183.41C110.895 182.338 111.247 181.156 111.36 179.865C111.465 178.669 111.358 177.592 111.041 176.633C110.723 175.673 110.236 174.908 109.579 174.337C108.939 173.767 108.188 173.444 107.327 173.369C106.387 173.286 105.474 173.536 104.588 174.117C103.703 174.682 102.965 175.5 102.373 176.573C101.797 177.647 101.451 178.853 101.334 180.192C101.228 181.404 101.333 182.489 101.651 183.448C101.986 184.393 102.475 185.142 103.117 185.696C103.759 186.251 104.502 186.565 105.347 186.638Z" fill="#FFA100" fill-opacity="0.89"/>
<path d="M140.785 159.11C139.622 159.009 138.606 158.599 137.737 157.88C136.886 157.147 136.254 156.192 135.843 155.016C135.434 153.824 135.291 152.519 135.415 151.1C135.555 149.506 136.002 148.06 136.758 146.761C137.514 145.461 138.469 144.469 139.621 143.783C140.774 143.081 141.981 142.785 143.24 142.895C144.419 142.998 145.435 143.416 146.286 144.149C147.139 144.866 147.77 145.821 148.18 147.013C148.589 148.205 148.732 149.511 148.608 150.929C148.469 152.523 148.021 153.97 147.265 155.269C146.51 156.552 145.556 157.544 144.402 158.246C143.25 158.933 142.045 159.221 140.785 159.11ZM141.011 157.637C141.967 157.72 142.88 157.471 143.75 156.888C144.636 156.307 145.375 155.481 145.967 154.408C146.559 153.336 146.911 152.154 147.024 150.863C147.128 149.667 147.022 148.59 146.704 147.631C146.387 146.671 145.9 145.906 145.243 145.335C144.602 144.765 143.851 144.442 142.991 144.367C142.05 144.284 141.137 144.534 140.251 145.115C139.367 145.68 138.628 146.498 138.037 147.571C137.461 148.645 137.114 149.851 136.997 151.19C136.891 152.402 136.997 153.487 137.315 154.446C137.65 155.391 138.138 156.14 138.78 156.695C139.422 157.249 140.166 157.563 141.011 157.637Z" fill="#FFA100" fill-opacity="0.89"/>
<path d="M102.699 155.779C102.476 155.759 102.299 155.671 102.168 155.515C102.038 155.343 101.982 155.154 102.001 154.946C102.016 154.771 102.086 154.617 102.21 154.483L108.754 147.973L103.921 140.708C103.81 140.505 103.76 140.34 103.771 140.213C103.79 140.006 103.885 139.837 104.057 139.708C104.229 139.578 104.418 139.522 104.625 139.541C104.864 139.562 105.056 139.667 105.2 139.856L109.815 146.861L115.911 140.793C116.054 140.629 116.253 140.558 116.508 140.58C116.715 140.598 116.883 140.693 117.013 140.865C117.16 141.023 117.225 141.197 117.208 141.388C117.193 141.564 117.114 141.725 116.973 141.874L110.689 148.166L115.668 155.685C115.754 155.804 115.789 155.96 115.772 156.151C115.754 156.359 115.666 156.536 115.509 156.682C115.353 156.813 115.171 156.87 114.964 156.852C114.709 156.829 114.525 156.725 114.413 156.538L109.58 149.273L103.296 155.566C103.137 155.728 102.938 155.799 102.699 155.779Z" fill="#FFA100" fill-opacity="0.89"/>
<path d="M132.784 190.533C132.561 190.513 132.384 190.426 132.253 190.27C132.124 190.098 132.068 189.908 132.086 189.701C132.101 189.526 132.171 189.371 132.295 189.237L138.84 182.727L134.006 175.462C133.896 175.26 133.846 175.095 133.857 174.967C133.875 174.76 133.97 174.592 134.142 174.462C134.314 174.333 134.504 174.277 134.711 174.295C134.95 174.316 135.141 174.421 135.285 174.61L139.9 181.615L145.997 175.547C146.139 175.383 146.338 175.312 146.593 175.335C146.801 175.353 146.969 175.448 147.098 175.62C147.245 175.777 147.31 175.951 147.294 176.143C147.278 176.318 147.2 176.48 147.058 176.628L140.774 182.92L145.754 190.439C145.84 190.559 145.874 190.714 145.857 190.906C145.839 191.113 145.752 191.29 145.594 191.437C145.438 191.568 145.257 191.624 145.049 191.606C144.794 191.584 144.611 191.479 144.499 191.293L139.665 184.028L133.381 190.32C133.222 190.483 133.023 190.554 132.784 190.533Z" fill="#FFA100" fill-opacity="0.89"/>
<path d="M68.1187 183.871C67.8955 183.852 67.7185 183.764 67.5876 183.608C67.4581 183.436 67.4024 183.246 67.4205 183.039C67.4359 182.864 67.5056 182.709 67.6297 182.576L74.174 176.065L69.3408 168.8C69.23 168.598 69.1802 168.433 69.1914 168.306C69.2095 168.098 69.3045 167.93 69.4765 167.8C69.6484 167.671 69.838 167.615 70.0452 167.633C70.2843 167.654 70.4759 167.759 70.6199 167.949L75.235 174.954L81.331 168.886C81.4739 168.722 81.6728 168.651 81.9278 168.673C82.135 168.691 82.3034 168.786 82.4329 168.958C82.5797 169.115 82.6448 169.29 82.6281 169.481C82.6127 169.656 82.5343 169.818 82.3929 169.966L76.1085 176.259L81.0882 183.777C81.1741 183.897 81.2086 184.053 81.1919 184.244C81.1738 184.451 81.086 184.628 80.9286 184.775C80.7726 184.906 80.591 184.962 80.3838 184.944C80.1288 184.922 79.9452 184.818 79.833 184.631L74.9998 177.366L68.7155 183.658C68.5567 183.821 68.3577 183.892 68.1187 183.871Z" fill="#FFA100" fill-opacity="0.89"/>
<path d="M105.488 123.9C105.265 123.881 105.088 123.793 104.957 123.637C104.827 123.465 104.772 123.275 104.79 123.068C104.805 122.893 104.875 122.738 104.999 122.605L111.543 116.094L106.71 108.829C106.599 108.627 106.549 108.462 106.561 108.334C106.579 108.127 106.674 107.959 106.846 107.829C107.018 107.7 107.207 107.644 107.414 107.662C107.653 107.683 107.845 107.788 107.989 107.977L112.604 114.982L118.7 108.915C118.843 108.75 119.042 108.679 119.297 108.702C119.504 108.72 119.673 108.815 119.802 108.987C119.949 109.144 120.014 109.319 119.997 109.51C119.982 109.685 119.903 109.847 119.762 109.995L113.478 116.287L118.457 123.806C118.543 123.926 118.578 124.082 118.561 124.273C118.543 124.48 118.455 124.657 118.298 124.804C118.142 124.935 117.96 124.991 117.753 124.973C117.498 124.951 117.314 124.846 117.202 124.66L112.369 117.395L106.085 123.687C105.926 123.85 105.727 123.921 105.488 123.9Z" fill="#FFA100" fill-opacity="0.89"/>
<path d="M70.7334 153.986C70.5103 153.966 70.3332 153.878 70.2023 153.722C70.0728 153.55 70.0171 153.361 70.0353 153.154C70.0506 152.978 70.1203 152.824 70.2445 152.69L76.7888 146.18L71.9556 138.915C71.8448 138.712 71.795 138.547 71.8061 138.42C71.8243 138.213 71.9193 138.044 72.0912 137.915C72.2632 137.785 72.4527 137.73 72.66 137.748C72.899 137.769 73.0906 137.874 73.2347 138.063L77.8497 145.068L83.9457 139C84.0886 138.836 84.2875 138.765 84.5426 138.787C84.7498 138.805 84.9181 138.9 85.0476 139.072C85.1945 139.23 85.2595 139.404 85.2428 139.595C85.2275 139.771 85.1491 139.932 85.0076 140.081L78.7233 146.373L83.7029 153.892C83.7888 154.011 83.8234 154.167 83.8067 154.358C83.7885 154.566 83.7008 154.743 83.5434 154.889C83.3874 155.02 83.2058 155.077 82.9985 155.059C82.7435 155.036 82.5599 154.932 82.4478 154.745L77.6145 147.481L71.3302 153.773C71.1714 153.936 70.9725 154.006 70.7334 153.986Z" fill="#FFA100" fill-opacity="0.89"/>
<line x1="62.0737" y1="132.436" x2="85.0737" y2="152.436" stroke="white" stroke-width="2"/>
<line x1="86.4688" y1="153.507" x2="67.4688" y2="96.5071" stroke="white" stroke-width="2"/>
</g>
<path d="M93.4175 168.191L71.4175 200.191" stroke="white" stroke-width="2"/>
<path d="M93.4175 168.191V213.191" stroke="white" stroke-width="2"/>
<path d="M99.5073 213.697C99.71 214.428 99.4846 215.256 98.8535 216.022C98.2237 216.786 97.2164 217.446 95.9727 217.791C94.7289 218.136 93.5255 218.088 92.5922 217.758C91.6572 217.427 91.0373 216.833 90.8346 216.102C90.6319 215.371 90.8574 214.543 91.4884 213.778C92.1182 213.014 93.1255 212.354 94.3693 212.009C95.613 211.664 96.8164 211.711 97.7497 212.041C98.6848 212.372 99.3046 212.966 99.5073 213.697Z" stroke="white"/>
<path d="M136.417 170.191L114.417 200.191" stroke="white" stroke-width="2"/>
<path d="M136.417 170.191V215.191" stroke="white" stroke-width="2"/>
<path d="M142.507 215.697C142.71 216.428 142.485 217.256 141.854 218.022C141.224 218.786 140.216 219.446 138.973 219.791C137.729 220.136 136.525 220.088 135.592 219.758C134.657 219.427 134.037 218.833 133.835 218.102C133.632 217.371 133.857 216.543 134.488 215.778C135.118 215.014 136.125 214.354 137.369 214.009C138.613 213.664 139.816 213.711 140.75 214.041C141.685 214.372 142.305 214.966 142.507 215.697Z" stroke="white"/>
<line x1="158.074" y1="141.436" x2="181.074" y2="161.436" stroke="white" stroke-width="2"/>
<line x1="182.495" y1="162.578" x2="156.495" y2="100.578" stroke="white" stroke-width="2"/>
<path d="M172.509 83.4044C169.545 79.2726 166.13 74.8971 160.461 75.2836C155.38 75.6301 154.154 81.329 155.485 85.4504C156.279 87.9105 158.35 90.1217 160.183 91.8661C162.864 94.4188 165.908 96.4298 169.074 98.3071C170.537 99.1748 171.827 100.348 173.343 101.124C174.1 101.511 175.087 101.441 175.692 102.045" stroke="#FF7100" stroke-opacity="0.5" stroke-linecap="round"/>
<path d="M174.267 84.0112C175.367 80.873 176.473 78.2768 178.837 75.9129C179.813 74.9368 180.714 73.9165 181.643 72.899C182.699 71.7416 183.274 71 184.84 71C188.04 71 188.16 74.2217 188.16 76.8317C188.16 78.9843 188.522 81.4889 187.928 83.5701C186.895 87.1854 185.985 90.7067 184.191 94.0452C182.953 96.3499 181.905 98.9668 180.319 101.065C180.005 101.481 179.396 102.054 179.339 102.585C179.284 103.1 179.179 103.471 178.678 103.638" stroke="#FF7100" stroke-opacity="0.5" stroke-linecap="round"/>
<path d="M171.841 84.8931C172.467 85.1277 171.311 85.8302 171.192 85.8977C169.806 86.6857 168.256 87.3296 166.745 87.8334C165.632 88.2042 165.101 88.0239 166.549 88.8136C168.286 89.761 169.106 91.7305 170.824 92.6851C171.157 92.8698 172.354 93.4707 171.964 93.4937C170.959 93.5528 170.142 94.2799 169.097 94.3635C168.725 94.3933 166.867 94.2206 167.97 94.8168C170.857 96.3773 172.84 99.6998 174.708 102.315" stroke="#FF7100" stroke-opacity="0.5" stroke-linecap="round"/>
<path d="M174.267 85.7754C173.88 85.8238 173.499 86.8285 173.287 87.0986C172.768 87.759 172.217 88.4875 171.621 89.0833C170.96 89.7445 171.284 89.5513 171.988 90.0022C172.589 90.3863 173.336 90.7239 173.851 91.2151C174.299 91.6433 174.751 92.2145 175.37 92.3912C175.882 92.5374 177.201 93.5763 177.477 94.1065C177.908 94.9352 173.404 94.6761 173.765 95.1968C174.987 96.9628 177.081 97.5711 178.102 99.5339C178.5 100.3 178.741 101.119 179.119 101.874" stroke="#FF7100" stroke-opacity="0.5" stroke-linecap="round"/>
<defs>
<clipPath id="clip0_204_6081">
<rect width="106" height="106" fill="white" transform="translate(61.2385 90.7734) rotate(5)"/>
</clipPath>
</defs>
</svg>
