<svg width="240" height="240" viewBox="0 0 240 240" fill="none" xmlns="http://www.w3.org/2000/svg">
<path d="M82.4868 52.2861C61.826 129.393 56.1059 150.741 55.8285 151.777" stroke="white" stroke-width="2" stroke-linecap="round"/>
<path d="M113.655 59.6025C92.9944 136.71 87.2744 158.057 86.9969 159.093" stroke="white" stroke-width="2" stroke-linecap="round"/>
<path d="M78.8127 54.4072C155.92 75.0681 177.268 80.7881 178.303 81.0656" stroke="white" stroke-width="2" stroke-linecap="round"/>
<path d="M69.5645 85.0581C146.672 105.719 168.019 111.439 169.055 111.716" stroke="white" stroke-width="2" stroke-linecap="round"/>
<path d="M62.2483 116.227C139.356 136.887 160.703 142.607 161.739 142.885" stroke="white" stroke-width="2" stroke-linecap="round"/>
<path d="M53 146.877C130.107 167.538 151.455 173.258 152.49 173.536" stroke="white" stroke-width="2" stroke-linecap="round"/>
<path d="M144.565 67.8848C123.904 144.992 118.184 166.34 117.907 167.375" stroke="white" stroke-width="2" stroke-linecap="round"/>
<path d="M175.475 76.167C154.814 153.274 149.094 174.622 148.816 175.657" stroke="white" stroke-width="2" stroke-linecap="round"/>
<path d="M102.569 150.43C101.441 150.127 100.512 149.547 99.7809 148.689C99.0697 147.819 98.6139 146.769 98.4133 145.539C98.2169 144.294 98.303 142.984 98.6716 141.608C99.0857 140.063 99.7778 138.716 100.748 137.568C101.718 136.42 102.83 135.608 104.084 135.132C105.342 134.641 106.582 134.559 107.802 134.886C108.946 135.193 109.874 135.781 110.585 136.651C111.3 137.505 111.756 138.555 111.952 139.8C112.149 141.045 112.062 142.355 111.694 143.731C111.28 145.276 110.588 146.623 109.617 147.771C108.651 148.904 107.539 149.716 106.281 150.207C105.028 150.682 103.79 150.757 102.569 150.43ZM103.047 149.017C103.974 149.266 104.917 149.179 105.875 148.756C106.848 148.338 107.72 147.652 108.489 146.698C109.258 145.745 109.81 144.642 110.145 143.391C110.456 142.231 110.538 141.152 110.392 140.152C110.246 139.152 109.899 138.314 109.351 137.637C108.819 136.964 108.136 136.516 107.301 136.293C106.39 136.048 105.447 136.135 104.474 136.554C103.504 136.956 102.635 137.635 101.866 138.588C101.113 139.546 100.562 140.674 100.214 141.972C99.8993 143.146 99.815 144.234 99.9612 145.234C100.127 146.222 100.478 147.045 101.014 147.702C101.55 148.359 102.228 148.798 103.047 149.017Z" fill="#FFA100" fill-opacity="0.89"/>
<path d="M97.8647 79.1634C97.8231 79.3508 97.7147 79.5071 97.5395 79.6321C97.3521 79.7381 97.1647 79.7703 96.9773 79.7287C96.7117 79.6699 96.5268 79.5059 96.4225 79.237L93.5996 71.9001L87.7012 77.7706C87.6145 77.8661 87.5095 77.933 87.3863 77.9712C87.2631 78.0094 87.139 78.0147 87.0141 77.987C86.811 77.942 86.6548 77.8336 86.5453 77.6619C86.4238 77.471 86.3855 77.2741 86.4305 77.071C86.4547 76.9616 86.5232 76.8375 86.636 76.6986L93.3514 70.0259C93.4381 69.9305 93.5509 69.8653 93.6897 69.8305C93.8129 69.7923 93.9292 69.7853 94.0385 69.8095C94.3353 69.8753 94.5219 70.0314 94.5984 70.2778L97.841 78.7157C97.8914 78.8579 97.8993 79.0072 97.8647 79.1634Z" fill="#FFA100" fill-opacity="0.89"/>
<path d="M157.865 95.1634C157.823 95.3508 157.715 95.5071 157.539 95.6321C157.352 95.7381 157.165 95.7703 156.977 95.7287C156.712 95.6699 156.527 95.5059 156.423 95.237L153.6 87.9001L147.701 93.7706C147.614 93.8661 147.51 93.933 147.386 93.9712C147.263 94.0094 147.139 94.0147 147.014 93.987C146.811 93.942 146.655 93.8336 146.545 93.6619C146.424 93.471 146.385 93.2741 146.431 93.071C146.455 92.9616 146.523 92.8375 146.636 92.6986L153.351 86.0259C153.438 85.9305 153.551 85.8653 153.69 85.8305C153.813 85.7923 153.929 85.7853 154.039 85.8095C154.335 85.8753 154.522 86.0314 154.598 86.2778L157.841 94.7157C157.891 94.8579 157.899 95.0072 157.865 95.1634Z" fill="#FFA100" fill-opacity="0.89"/>
<line x1="68.669" y1="81.1565" x2="57.6117" y2="22.1841" stroke="white" stroke-width="2"/>
<line x1="172.997" y1="111.216" x2="218.338" y2="71.9206" stroke="white" stroke-width="2"/>
<line x1="77.6519" y1="215.972" x2="77.6519" y2="159.972" stroke="white" stroke-width="2"/>
<line x1="148.038" y1="212.273" x2="136.69" y2="172.245" stroke="white" stroke-width="2"/>
<path d="M75.1519 215.472C75.1519 216.231 74.7133 216.969 73.9007 217.537C73.0896 218.105 71.9426 218.472 70.6519 218.472C69.3612 218.472 68.2141 218.105 67.4031 217.537C66.5904 216.969 66.1519 216.231 66.1519 215.472C66.1519 214.714 66.5904 213.976 67.4031 213.407C68.2141 212.839 69.3612 212.472 70.6519 212.472C71.9426 212.472 73.0896 212.839 73.9007 213.407C74.7133 213.976 75.1519 214.714 75.1519 215.472Z" stroke="white"/>
<path d="M159.09 209.506C159.293 210.237 159.067 211.066 158.436 211.831C157.806 212.595 156.799 213.255 155.555 213.6C154.311 213.945 153.108 213.898 152.175 213.567C151.24 213.236 150.62 212.642 150.417 211.911C150.214 211.18 150.44 210.352 151.071 209.587C151.701 208.823 152.708 208.163 153.952 207.818C155.196 207.473 156.399 207.52 157.332 207.851C158.267 208.182 158.887 208.775 159.09 209.506Z" stroke="white"/>
</svg>
