<svg width="106" height="106" viewBox="0 0 106 106" fill="none" xmlns="http://www.w3.org/2000/svg">
<g clip-path="url(#clip0_116_5956)">
<path d="M5 2C5 81.8273 5 103.928 5 105" stroke="white" stroke-width="2" stroke-linecap="round"/>
<path d="M37 1C37 80.8273 37 102.928 37 104" stroke="white" stroke-width="2" stroke-linecap="round"/>
<path d="M2 5C81.8273 5 103.928 5 105 5" stroke="white" stroke-width="2" stroke-linecap="round"/>
<path d="M1 37C80.8273 37 102.928 37 104 37" stroke="white" stroke-width="2" stroke-linecap="round"/>
<path d="M2 69C81.8273 69 103.928 69 105 69" stroke="white" stroke-width="2" stroke-linecap="round"/>
<path d="M1 101C80.8273 101 102.928 101 104 101" stroke="white" stroke-width="2" stroke-linecap="round"/>
<path d="M69 1C69 80.8273 69 102.928 69 104" stroke="white" stroke-width="2" stroke-linecap="round"/>
<path d="M101 1C101 80.8273 101 102.928 101 104" stroke="white" stroke-width="2" stroke-linecap="round"/>
<path d="M20.2 29.144C19.032 29.144 17.984 28.824 17.056 28.184C16.144 27.528 15.432 26.632 14.92 25.496C14.408 24.344 14.152 23.056 14.152 21.632C14.152 20.032 14.472 18.552 15.112 17.192C15.752 15.832 16.616 14.76 17.704 13.976C18.792 13.176 19.968 12.776 21.232 12.776C22.416 12.776 23.464 13.104 24.376 13.76C25.288 14.4 26 15.296 26.512 16.448C27.024 17.6 27.28 18.888 27.28 20.312C27.28 21.912 26.96 23.392 26.32 24.752C25.68 26.096 24.816 27.168 23.728 27.968C22.64 28.752 21.464 29.144 20.2 29.144ZM20.296 27.656C21.256 27.656 22.144 27.328 22.96 26.672C23.792 26.016 24.456 25.128 24.952 24.008C25.448 22.888 25.696 21.68 25.696 20.384C25.696 19.184 25.496 18.12 25.096 17.192C24.696 16.264 24.144 15.544 23.44 15.032C22.752 14.52 21.976 14.264 21.112 14.264C20.168 14.264 19.28 14.592 18.448 15.248C17.616 15.888 16.952 16.768 16.456 17.888C15.976 19.008 15.736 20.24 15.736 21.584C15.736 22.8 15.936 23.872 16.336 24.8C16.752 25.712 17.304 26.416 17.992 26.912C18.68 27.408 19.448 27.656 20.296 27.656Z" fill="#FFA100" fill-opacity="0.89"/>
<path d="M52.2 93.144C51.032 93.144 49.984 92.824 49.056 92.184C48.144 91.528 47.432 90.632 46.92 89.496C46.408 88.344 46.152 87.056 46.152 85.632C46.152 84.032 46.472 82.552 47.112 81.192C47.752 79.832 48.616 78.76 49.704 77.976C50.792 77.176 51.968 76.776 53.232 76.776C54.416 76.776 55.464 77.104 56.376 77.76C57.288 78.4 58 79.296 58.512 80.448C59.024 81.6 59.28 82.888 59.28 84.312C59.28 85.912 58.96 87.392 58.32 88.752C57.68 90.096 56.816 91.168 55.728 91.968C54.64 92.752 53.464 93.144 52.2 93.144ZM52.296 91.656C53.256 91.656 54.144 91.328 54.96 90.672C55.792 90.016 56.456 89.128 56.952 88.008C57.448 86.888 57.696 85.68 57.696 84.384C57.696 83.184 57.496 82.12 57.096 81.192C56.696 80.264 56.144 79.544 55.44 79.032C54.752 78.52 53.976 78.264 53.112 78.264C52.168 78.264 51.28 78.592 50.448 79.248C49.616 79.888 48.952 80.768 48.456 81.888C47.976 83.008 47.736 84.24 47.736 85.584C47.736 86.8 47.936 87.872 48.336 88.8C48.752 89.712 49.304 90.416 49.992 90.912C50.68 91.408 51.448 91.656 52.296 91.656Z" fill="#FFA100" fill-opacity="0.89"/>
<path d="M46.968 61.144C46.744 61.144 46.56 61.072 46.416 60.928C46.272 60.768 46.2 60.584 46.2 60.376C46.2 60.2 46.256 60.04 46.368 59.896L52.32 52.84L46.872 46.024C46.744 45.832 46.68 45.672 46.68 45.544C46.68 45.336 46.76 45.16 46.92 45.016C47.08 44.872 47.264 44.8 47.472 44.8C47.712 44.8 47.912 44.888 48.072 45.064L53.28 51.64L58.824 45.064C58.952 44.888 59.144 44.8 59.4 44.8C59.608 44.8 59.784 44.88 59.928 45.04C60.088 45.184 60.168 45.352 60.168 45.544C60.168 45.72 60.104 45.888 59.976 46.048L54.264 52.864L59.88 59.92C59.976 60.032 60.024 60.184 60.024 60.376C60.024 60.584 59.952 60.768 59.808 60.928C59.664 61.072 59.488 61.144 59.28 61.144C59.024 61.144 58.832 61.056 58.704 60.88L53.256 54.064L47.544 60.88C47.4 61.056 47.208 61.144 46.968 61.144Z" fill="#FFA100" fill-opacity="0.89"/>
<path d="M79.968 61.144C79.744 61.144 79.56 61.072 79.416 60.928C79.272 60.768 79.2 60.584 79.2 60.376C79.2 60.2 79.256 60.04 79.368 59.896L85.32 52.84L79.872 46.024C79.744 45.832 79.68 45.672 79.68 45.544C79.68 45.336 79.76 45.16 79.92 45.016C80.08 44.872 80.264 44.8 80.472 44.8C80.712 44.8 80.912 44.888 81.072 45.064L86.28 51.64L91.824 45.064C91.952 44.888 92.144 44.8 92.4 44.8C92.608 44.8 92.784 44.88 92.928 45.04C93.088 45.184 93.168 45.352 93.168 45.544C93.168 45.72 93.104 45.888 92.976 46.048L87.264 52.864L92.88 59.92C92.976 60.032 93.024 60.184 93.024 60.376C93.024 60.584 92.952 60.768 92.808 60.928C92.664 61.072 92.488 61.144 92.28 61.144C92.024 61.144 91.832 61.056 91.704 60.88L86.256 54.064L80.544 60.88C80.4 61.056 80.208 61.144 79.968 61.144Z" fill="#FFA100" fill-opacity="0.89"/>
<path d="M14.968 93.144C14.744 93.144 14.56 93.072 14.416 92.928C14.272 92.768 14.2 92.584 14.2 92.376C14.2 92.2 14.256 92.04 14.368 91.896L20.32 84.84L14.872 78.024C14.744 77.832 14.68 77.672 14.68 77.544C14.68 77.336 14.76 77.16 14.92 77.016C15.08 76.872 15.264 76.8 15.472 76.8C15.712 76.8 15.912 76.888 16.072 77.064L21.28 83.64L26.824 77.064C26.952 76.888 27.144 76.8 27.4 76.8C27.608 76.8 27.784 76.88 27.928 77.04C28.088 77.184 28.168 77.352 28.168 77.544C28.168 77.72 28.104 77.888 27.976 78.048L22.264 84.864L27.88 91.92C27.976 92.032 28.024 92.184 28.024 92.376C28.024 92.584 27.952 92.768 27.808 92.928C27.664 93.072 27.488 93.144 27.28 93.144C27.024 93.144 26.832 93.056 26.704 92.88L21.256 86.064L15.544 92.88C15.4 93.056 15.208 93.144 14.968 93.144Z" fill="#FFA100" fill-opacity="0.89"/>
</g>
<defs>
<clipPath id="clip0_116_5956">
<rect width="106" height="106" fill="white"/>
</clipPath>
</defs>
</svg>
