<svg width="254" height="254" viewBox="0 0 254 254" fill="none" xmlns="http://www.w3.org/2000/svg">
<path d="M11.9812 4.79199C11.9812 196.076 11.9812 249.035 11.9812 251.603" stroke="white" stroke-width="2" stroke-linecap="round"/>
<path d="M88.6604 2.396C88.6604 193.68 88.6604 246.639 88.6604 249.207" stroke="white" stroke-width="2" stroke-linecap="round"/>
<path d="M4.79248 11.981C196.077 11.981 249.035 11.981 251.604 11.981" stroke="white" stroke-width="2" stroke-linecap="round"/>
<path d="M2.39624 88.6602C193.681 88.6602 246.639 88.6602 249.208 88.6602" stroke="white" stroke-width="2" stroke-linecap="round"/>
<path d="M4.79248 165.339C196.077 165.339 249.035 165.339 251.604 165.339" stroke="white" stroke-width="2" stroke-linecap="round"/>
<path d="M2.39624 242.019C193.681 242.019 246.639 242.019 249.208 242.019" stroke="white" stroke-width="2" stroke-linecap="round"/>
<path d="M165.34 2.396C165.34 193.68 165.34 246.639 165.34 249.207" stroke="white" stroke-width="2" stroke-linecap="round"/>
<path d="M242.019 2.396C242.019 193.68 242.019 246.639 242.019 249.207" stroke="white" stroke-width="2" stroke-linecap="round"/>
</svg>
